<svg xmlns="http://www.w3.org/2000/svg" width="56" height="44.998" viewBox="0 0 56 44.998">
  <g id="Grupo_2" data-name="Grupo 2" transform="translate(0.002 -1.001)">
    <path id="Shape" d="M49.721,45H6.281a6.239,6.239,0,0,1-4.418-1.9A6.216,6.216,0,0,1,0,38.589V11.521A6.521,6.521,0,0,1,1.863,7.01a5.986,5.986,0,0,1,4.418-1.9h8.785V5A5.023,5.023,0,0,1,16.5,1.467,4.882,4.882,0,0,1,20.016,0H35.982a4.826,4.826,0,0,1,3.463,1.466A4.974,4.974,0,0,1,40.885,5v.106h8.836a5.986,5.986,0,0,1,4.418,1.9A6.235,6.235,0,0,1,56,11.521V38.589A6.491,6.491,0,0,1,54.139,43.1,5.97,5.97,0,0,1,49.721,45ZM6.281,7.991A3.388,3.388,0,0,0,3.834,9.023a3.527,3.527,0,0,0-1.01,2.5V38.589a3.523,3.523,0,0,0,1.01,2.5,3.388,3.388,0,0,0,2.447,1.032H49.721a3.381,3.381,0,0,0,2.445-1.032,3.528,3.528,0,0,0,1.012-2.5h.055V11.521a3.544,3.544,0,0,0-1.01-2.5,3.363,3.363,0,0,0-2.447-1.032H39.5a1.455,1.455,0,0,1-1.436-1.47V4.945a2.134,2.134,0,0,0-.586-1.521,2.061,2.061,0,0,0-1.492-.6H20.07a2.061,2.061,0,0,0-1.492.6,2.134,2.134,0,0,0-.586,1.521V6.521a1.455,1.455,0,0,1-1.436,1.47Z" transform="translate(0 1)" fill="#fff"/>
    <path id="Shape-2" data-name="Shape" d="M13,27a12.677,12.677,0,0,1-9.194-3.951,13.477,13.477,0,0,1-2.775-4.281A13.878,13.878,0,0,1,0,13.5,13.678,13.678,0,0,1,3.805,3.951,12.918,12.918,0,0,1,7.927,1.07a12.562,12.562,0,0,1,10.146,0,12.917,12.917,0,0,1,4.122,2.881A13.477,13.477,0,0,1,24.97,8.232,13.878,13.878,0,0,1,26,13.5a13.678,13.678,0,0,1-3.805,9.549,12.917,12.917,0,0,1-4.122,2.881A12.524,12.524,0,0,1,13,27ZM13,3.019A9.9,9.9,0,0,0,5.813,6.091a10.9,10.9,0,0,0-2.959,7.464,10.686,10.686,0,0,0,2.959,7.464,9.942,9.942,0,0,0,14.374,0,10.43,10.43,0,0,0,2.959-7.464,10.686,10.686,0,0,0-2.959-7.464A10.092,10.092,0,0,0,13,3.019Z" transform="translate(15 12)" fill="#fff"/>
    <circle id="Oval" cx="2.5" cy="2.5" r="2.5" transform="translate(44 12)" fill="#fff"/>
  </g>
</svg>
