<svg id="icon_grupo-discussao" data-name="icon/grupo-discussao" xmlns="http://www.w3.org/2000/svg" width="59.543" height="43.31" viewBox="0 0 59.543 43.31">
  <g id="book" transform="translate(0 0)">
    <path id="Shape" d="M58.448,43.311H1.1A1.094,1.094,0,0,1,0,42.22V6.542A1.094,1.094,0,0,1,1.1,5.451H3.717V2.983A1.091,1.091,0,0,1,4.685,1.9L19.874.124A18.317,18.317,0,0,1,21.995,0a17.916,17.916,0,0,1,7.777,1.764A17.91,17.91,0,0,1,37.548,0a18.316,18.316,0,0,1,2.121.124L54.859,1.9a1.091,1.091,0,0,1,.967,1.083V5.451h2.622a1.094,1.094,0,0,1,1.1,1.091V42.22A1.094,1.094,0,0,1,58.448,43.311ZM2.191,7.632v33.5H57.353V7.632H55.826V37.6a1.092,1.092,0,0,1-1.1,1.09,1.007,1.007,0,0,1-.128-.007L39.414,36.911a16.1,16.1,0,0,0-1.862-.109,15.934,15.934,0,0,0-7.275,1.77,1.1,1.1,0,0,1-1.008,0,15.872,15.872,0,0,0-9.139-1.661L4.94,38.687A1.093,1.093,0,0,1,3.717,37.6V7.632Zm35.361,26.99a18.292,18.292,0,0,1,2.117.124l13.966,1.633V3.952L39.414,2.29a16.1,16.1,0,0,0-1.859-.108,15.746,15.746,0,0,0-6.688,1.481V35.907A17.955,17.955,0,0,1,37.552,34.622ZM21.99,2.181a16.068,16.068,0,0,0-1.86.109L5.908,3.952V36.378l13.966-1.633a18.3,18.3,0,0,1,2.12-.123,17.948,17.948,0,0,1,6.683,1.286V3.662A15.745,15.745,0,0,0,21.99,2.181Z" transform="translate(0 0)"/>
    <path id="Path" d="M1.346,3.262a12.7,12.7,0,0,1,5.846-.53l11.1,1.59a.886.886,0,0,0,.126.009A1.168,1.168,0,0,0,19.48,3.182a1.269,1.269,0,0,0-.935-1.444L7.441.147a14.454,14.454,0,0,0-6.653.6,1.353,1.353,0,0,0-.75,1.6A1.062,1.062,0,0,0,1.346,3.262Z" transform="translate(31.396 5.414)" fill="#fc4303"/>
    <path id="Path-2" data-name="Path" d="M1.065,4.331a.884.884,0,0,0,.126-.009l11.1-1.591a12.778,12.778,0,0,1,5.846.532,1.061,1.061,0,0,0,1.309-.914A1.354,1.354,0,0,0,18.7.751,14.538,14.538,0,0,0,12.046.145L.942,1.736A1.27,1.27,0,0,0,.007,3.181,1.169,1.169,0,0,0,1.065,4.331Z" transform="translate(8.661 5.414)" fill="#fc4303"/>
    <path id="Path-3" data-name="Path" d="M1.346,3.262a12.7,12.7,0,0,1,5.846-.53l11.1,1.59a.886.886,0,0,0,.126.009A1.168,1.168,0,0,0,19.48,3.182a1.269,1.269,0,0,0-.935-1.444L7.441.147a14.457,14.457,0,0,0-6.653.6,1.353,1.353,0,0,0-.75,1.6A1.062,1.062,0,0,0,1.346,3.262Z" transform="translate(31.396 10.828)" fill="#fc4303"/>
    <path id="Path-4" data-name="Path" d="M1.065,4.331a.884.884,0,0,0,.126-.009l11.1-1.591a12.782,12.782,0,0,1,5.846.532,1.061,1.061,0,0,0,1.309-.914A1.354,1.354,0,0,0,18.7.751,14.54,14.54,0,0,0,12.046.145L.942,1.736A1.27,1.27,0,0,0,.007,3.181,1.169,1.169,0,0,0,1.065,4.331Z" transform="translate(8.661 10.828)" fill="#fc4303"/>
    <path id="Path-5" data-name="Path" d="M1.346,3.262a12.7,12.7,0,0,1,5.846-.53l11.1,1.59a.886.886,0,0,0,.126.009A1.168,1.168,0,0,0,19.48,3.182a1.269,1.269,0,0,0-.935-1.444L7.441.147a14.459,14.459,0,0,0-6.653.6,1.353,1.353,0,0,0-.75,1.6A1.062,1.062,0,0,0,1.346,3.262Z" transform="translate(31.396 16.242)" fill="#fc4303"/>
    <path id="Path-6" data-name="Path" d="M1.065,4.331a.884.884,0,0,0,.126-.009l11.1-1.591a12.782,12.782,0,0,1,5.846.532,1.061,1.061,0,0,0,1.309-.914A1.354,1.354,0,0,0,18.7.751,14.542,14.542,0,0,0,12.046.145L.942,1.736A1.27,1.27,0,0,0,.007,3.181,1.169,1.169,0,0,0,1.065,4.331Z" transform="translate(8.661 16.242)" fill="#fc4303"/>
    <path id="Path-7" data-name="Path" d="M1.346,3.262a12.7,12.7,0,0,1,5.846-.53l11.1,1.59a.886.886,0,0,0,.126.009A1.168,1.168,0,0,0,19.48,3.182a1.269,1.269,0,0,0-.935-1.444L7.441.147a14.459,14.459,0,0,0-6.653.6,1.353,1.353,0,0,0-.75,1.6A1.062,1.062,0,0,0,1.346,3.262Z" transform="translate(31.396 21.655)" fill="#fc4303"/>
    <path id="Path-8" data-name="Path" d="M1.065,4.331a.884.884,0,0,0,.126-.009l11.1-1.591a12.778,12.778,0,0,1,5.846.532,1.061,1.061,0,0,0,1.309-.914A1.354,1.354,0,0,0,18.7.751,14.54,14.54,0,0,0,12.046.145L.942,1.736A1.27,1.27,0,0,0,.007,3.181,1.169,1.169,0,0,0,1.065,4.331Z" transform="translate(8.661 21.655)" fill="#fc4303"/>
    <path id="Path-9" data-name="Path" d="M18.545,1.738,7.441.147a14.458,14.458,0,0,0-6.653.6,1.353,1.353,0,0,0-.75,1.6,1.062,1.062,0,0,0,1.309.914,12.709,12.709,0,0,1,5.846-.53l11.1,1.59a.886.886,0,0,0,.126.009A1.168,1.168,0,0,0,19.48,3.182,1.27,1.27,0,0,0,18.545,1.738Z" transform="translate(31.396 27.069)" fill="#fc4303"/>
    <path id="Path-10" data-name="Path" d="M1.065,4.331a.884.884,0,0,0,.126-.009l11.1-1.591a12.782,12.782,0,0,1,5.846.532,1.061,1.061,0,0,0,1.309-.914A1.354,1.354,0,0,0,18.7.751,14.54,14.54,0,0,0,12.046.145L.942,1.736A1.27,1.27,0,0,0,.007,3.181,1.169,1.169,0,0,0,1.065,4.331Z" transform="translate(8.661 27.069)" fill="#fc4303"/>
  </g>
</svg>
