<svg id="icon_grupo-discussao" data-name="icon/grupo-discussao" xmlns="http://www.w3.org/2000/svg" width="60.626" height="73.628" viewBox="0 0 60.626 73.628">
  <path id="Shape" d="M5.613,32.483a.85.85,0,0,1-.328-.066.859.859,0,0,1-.528-.8V24.165H3a3.015,3.015,0,0,1-3-3.021V3.021A3.015,3.015,0,0,1,3,0h30.8a3.015,3.015,0,0,1,3,3.021V21.144a3.015,3.015,0,0,1-3,3.021H14.234L6.219,32.231A.848.848,0,0,1,5.613,32.483ZM3,1.723a1.3,1.3,0,0,0-1.291,1.3V21.144A1.3,1.3,0,0,0,3,22.442H5.613a.852.852,0,0,1,.851.781.557.557,0,0,1,0,.08v6.239l6.8-6.843.031-.03,0,0a.848.848,0,0,1,.574-.224H33.807a1.3,1.3,0,0,0,1.291-1.3V3.021a1.3,1.3,0,0,0-1.291-1.3Z" transform="translate(23.817 0)"/>
  <path id="Path" d="M5.666,0H.83A.982.982,0,0,0,0,1.083.982.982,0,0,0,.83,2.166H5.666A.982.982,0,0,0,6.5,1.083.982.982,0,0,0,5.666,0Z" transform="translate(30.313 6.497)" fill="#fc4303"/>
  <path id="Path-2" data-name="Path" d="M14.325,0H.832A.983.983,0,0,0,0,1.083.982.982,0,0,0,.832,2.166H14.325a.982.982,0,0,0,.832-1.083A.983.983,0,0,0,14.325,0Z" transform="translate(30.313 10.828)" fill="#fc4303"/>
  <path id="Path-3" data-name="Path" d="M12.167,0H.824A.98.98,0,0,0,0,1.083.98.98,0,0,0,.824,2.166H12.167a.98.98,0,0,0,.824-1.083A.98.98,0,0,0,12.167,0Z" transform="translate(41.139 6.497)" fill="#fc4303"/>
  <path id="Path-4" data-name="Path" d="M3.56,0H.771C.345,0,0,.485,0,1.083S.345,2.166.771,2.166H3.56c.426,0,.771-.485.771-1.083S3.985,0,3.56,0Z" transform="translate(49.8 10.828)" fill="#fc4303"/>
  <path id="Path-5" data-name="Path" d="M8.862,0H.881A1,1,0,0,0,0,1.083,1,1,0,0,0,.881,2.166H8.862a1,1,0,0,0,.881-1.083A1,1,0,0,0,8.862,0Z" transform="translate(30.313 16.241)" fill="#fc4303"/>
  <path id="Path-6" data-name="Path" d="M10,0H.829A.982.982,0,0,0,0,1.083.982.982,0,0,0,.829,2.166H10a.982.982,0,0,0,.829-1.083A.982.982,0,0,0,10,0Z" transform="translate(43.304 16.241)" fill="#fc4303"/>
  <path id="Shape-2" data-name="Shape" d="M15.148,44.393H7.472a1.057,1.057,0,0,1-1.05-1.062V25.112H1.05A1.057,1.057,0,0,1,0,24.05V16.537a1.057,1.057,0,0,1,1.05-1.062H6.422V11c0-6.783,4.066-11,10.611-11a51.626,51.626,0,0,1,5.873.308,1.061,1.061,0,0,1,.912,1.053V8.078a1.057,1.057,0,0,1-1.05,1.061l-3.933,0c-2.27,0-2.636.765-2.636,2.6v3.737h6.313a1.037,1.037,0,0,1,.788.361,1.065,1.065,0,0,1,.255.836l-.958,7.514a1.055,1.055,0,0,1-1.041.927H16.2v18.22A1.055,1.055,0,0,1,15.148,44.393ZM2.1,17.6v5.391H7.472a1.057,1.057,0,0,1,1.05,1.061V42.27H14.1V24.05a1.057,1.057,0,0,1,1.05-1.061h5.481l.688-5.391H15.148a1.057,1.057,0,0,1-1.05-1.061v-4.8c0-2.026.491-4.72,4.737-4.72l2.884,0v-4.7c-.666-.058-2.457-.2-4.686-.2C11.7,2.123,8.522,5.44,8.522,11v5.539A1.057,1.057,0,0,1,7.472,17.6Z" transform="translate(0 29.234)"/>
</svg>
