<svg xmlns="http://www.w3.org/2000/svg" width="16.018" height="15.863" viewBox="0 0 16.018 15.863">
  <path id="Fill_1_Copy_2" data-name="Fill 1 Copy 2" d="M14.936,2.379A3.813,3.813,0,0,0,11.451,0C9.343,0,7.688,1.149,7.688,3.364,7.688,1.149,5.925,0,3.817,0A3.813,3.813,0,0,0,.332,2.379,2.978,2.978,0,0,0,0,4.009c0,.142.008.283.021.422C.459,9.012,7.634,15,7.634,15s7.175-5.988,7.612-10.569a4.189,4.189,0,0,0,.022-.422,2.982,2.982,0,0,0-.332-1.63" transform="translate(0.375 0.375)" fill="none" stroke="#fc4303" stroke-miterlimit="10" stroke-width="0.75"/>
</svg>
