<svg xmlns="http://www.w3.org/2000/svg" width="20" height="20" viewBox="0 0 20 20">
  <g id="Group_22" data-name="Group 22" transform="translate(1266 2010) rotate(180)">
    <path id="Path_2" data-name="Path 2" d="M10,0A10,10,0,1,1,0,10,10,10,0,0,1,10,0Z" transform="translate(1246 1990)" fill="#fff"/>
    <path id="Icon_awesome-arrow-circle-right" data-name="Icon awesome-arrow-circle-right" d="M10.562.563a10,10,0,1,1-10,10A10,10,0,0,1,10.562.563ZM9.4,6.353l3.044,2.919H5.079a.965.965,0,0,0-.968.968v.645a.965.965,0,0,0,.968.968h7.363L9.4,14.772a.969.969,0,0,0-.016,1.383l.444.44a.964.964,0,0,0,1.367,0l5.351-5.347a.964.964,0,0,0,0-1.367L11.192,4.526a.964.964,0,0,0-1.367,0l-.444.44A.974.974,0,0,0,9.4,6.353Z" transform="translate(1245.438 1989.438)" fill="rgba(0,0,0,0.4)"/>
  </g>
</svg>
