<svg xmlns="http://www.w3.org/2000/svg" width="40" height="40" viewBox="0 0 40 40">
  <g id="Group_27" data-name="Group 27" transform="translate(-5656 -798)">
    <circle id="Ellipse_2" data-name="Ellipse 2" cx="15" cy="15" r="15" transform="translate(5661 803)" fill="#fff"/>
    <path id="Icon_awesome-chevron-circle-up" data-name="Icon awesome-chevron-circle-up" d="M.563,20.562a20,20,0,1,1,20,20A20,20,0,0,1,.563,20.562Zm18.629-9.185L8.264,22.3a1.927,1.927,0,0,0,0,2.734l1.371,1.371a1.928,1.928,0,0,0,2.734,0l8.194-8.194,8.194,8.194a1.928,1.928,0,0,0,2.734,0l1.371-1.371a1.927,1.927,0,0,0,0-2.734L21.933,11.377A1.937,1.937,0,0,0,19.192,11.377Z" transform="translate(5655.438 797.438)" fill="#2c43f3"/>
  </g>
</svg>
