<svg xmlns="http://www.w3.org/2000/svg" width="40" height="40" viewBox="0 0 40 40">
  <g id="Group_28" data-name="Group 28" transform="translate(-5658 -747)">
    <circle id="Ellipse_3" data-name="Ellipse 3" cx="15" cy="15" r="15" transform="translate(5663 752)" fill="#fff"/>
    <path id="Icon_awesome-chevron-circle-down" data-name="Icon awesome-chevron-circle-down" d="M40.563,20.563a20,20,0,1,1-20-20A20,20,0,0,1,40.563,20.563ZM21.933,29.748,32.861,18.821a1.927,1.927,0,0,0,0-2.734L31.49,14.716a1.928,1.928,0,0,0-2.734,0l-8.194,8.194-8.194-8.194a1.928,1.928,0,0,0-2.734,0L8.264,16.087a1.928,1.928,0,0,0,0,2.734L19.192,29.748A1.937,1.937,0,0,0,21.933,29.748Z" transform="translate(5657.438 746.438)" fill="#2c43f3"/>
  </g>
</svg>
